<svg id="Capa_1" enable-background="new 0 0 512 512" height="512" viewBox="0 0 512 512" width="512" xmlns="http://www.w3.org/2000/svg"><g><g><g><path d="m504.5 500.5v-395c0-5.523-4.477-10-10-10h-50l-10.856 11.112h-347.482l-18.662-11.112h-50c-5.523 0-10 4.477-10 10v395c0 2.209 1.791 4 4 4h31l13.168-6.547 398.78.376 15.052 6.171h31c2.209 0 4-1.791 4-4z" fill="#948393"/><g fill="#7c6c79"><path d="m78.356 130.638h-35.856c-2.761 0-5 2.239-5 5v20c0 2.761 2.239 5 5 5h35.856z"/><path d="m78.356 195.638h-35.856c-2.761 0-5 2.239-5 5v20c0 2.761 2.239 5 5 5h35.856z"/><path d="m78.356 260.638h-35.856c-2.761 0-5 2.239-5 5v20c0 2.761 2.239 5 5 5h35.856z"/><path d="m78.356 325.638h-35.856c-2.761 0-5 2.239-5 5v20c0 2.761 2.239 5 5 5h35.856z"/><path d="m78.356 390.638h-35.856c-2.761 0-5 2.239-5 5v20c0 2.761 2.239 5 5 5h25z"/></g><g fill="#7c6c79"><path d="m433.644 130.638h35.856c2.761 0 5 2.239 5 5v20c0 2.761-2.239 5-5 5h-35.856z"/><path d="m433.644 195.638h35.856c2.761 0 5 2.239 5 5v20c0 2.761-2.239 5-5 5h-35.856z"/><path d="m433.644 260.638h35.856c2.761 0 5 2.239 5 5v20c0 2.761-2.239 5-5 5h-35.856z"/><path d="m433.644 325.638h35.856c2.761 0 5 2.239 5 5v20c0 2.761-2.239 5-5 5h-35.856z"/><path d="m433.644 390.638h35.856c2.761 0 5 2.239 5 5v20c0 2.761-2.239 5-5 5h-25z"/></g><path d="m434.5 412.87v-309.081l-10-8.289h-357v325.138h38.847l24-6.262h264l11.294 6.262h18.859z" fill="#be96f9"/><path d="m424.5 95.5h20v325.138h-20z" fill="#9d7ffa"/><path d="m469.5 504.5h-25l-10.103-15 10.103-15h25c2.761 0 5 2.239 5 5v20c0 2.761-2.239 5-5 5z" fill="#7c6c79"/><path d="m67.5 504.5h-25c-2.761 0-5-2.239-5-5v-20c0-2.761 2.239-5 5-5h25l10.004 15z" fill="#7c6c79"/><path d="m67.5 504.5v-15l8.121-9.242 361.788-.376 1.129 17.694-14.038 6.924z" fill="#be96f9"/><path d="m444.5 474.5v30h-20v-8c0-3.866-3.134-7-7-7h-350v-15z" fill="#9d7ffa"/></g><g><path d="m380.167 253.495c4.148 3.657 6.764 9.01 6.764 14.974 0 11.022-8.935 27.939-19.956 27.939-11.022 0-19.956-16.917-19.957-27.939 0-6.044 2.687-11.461 6.932-15.121z" fill="#f5b07b"/><path d="m345.304 240.51c4.637 10.111 12.626 18.935 21.702 18.935 14.331 0 25.334-20.446 25.948-36.327.08-2.063-.001-4.132-.224-6.189-4.522-11.877-12.768-22.478-19.242-29.871l-28.184.452z" fill="#da9b6a"/><g fill="#c98d5d"><path d="m392.73 216.93c-7.89 12.3-21.67 20.26-37.07 20.26h-10.36v-49.68l34.12-.45c6.47 7.39 12.07 18.44 13.31 29.87z"/><path d="m384.131 320.427c0 9.475-34.312 9.475-34.312 0s7.681-24.019 17.156-24.019c9.474.001 17.156 14.544 17.156 24.019z"/></g></g><g><path d="m131.833 253.495c-4.148 3.657-6.764 9.01-6.764 14.974 0 11.022 8.935 27.939 19.956 27.939 11.022 0 19.957-16.917 19.957-27.939 0-6.044-2.687-11.461-6.932-15.121z" fill="#f5b07b"/><path d="m166.696 240.51c-4.637 10.111-12.626 18.935-21.702 18.935-14.331 0-25.334-20.446-25.948-36.327-.08-2.063.001-4.132.224-6.189 4.522-11.877 12.768-22.478 19.242-29.871l28.184.452z" fill="#da9b6a"/><g fill="#c98d5d"><path d="m119.27 216.93c7.89 12.3 21.67 20.26 37.07 20.26h10.36v-49.68l-34.12-.45c-6.47 7.39-12.07 18.44-13.31 29.87z"/><path d="m127.869 320.427c0 9.475 34.312 9.475 34.312 0s-7.681-24.019-17.156-24.019c-9.474.001-17.156 14.544-17.156 24.019z"/></g></g><path d="m373.488 179.774.812-46.101c0-12.8-1.753-27.592-5.365-39.203-6.422-20.645-16.292-30.729-23.435-39.101-3.133-3.663-6.895-7.63-11.361-11.643-3.83-3.441-7.561-6.361-11.029-8.826-10.385-7.385-17.327-16.195-29.945-21.716l-7.617.015-6.695-3.591c-7.407-1.384-15.045-2.108-22.853-2.108-68.257 0-123.591 55.333-123.591 123.591v52.207c-.156 2.018-.066 4.094.318 6.196 2.083 11.407 12.021 19.695 23.617 19.695h.89 187.136c11.596 0 26.717-11.812 28.8-23.219 0 0 .474-4.178.318-6.196z" fill="#f5b07b"/><path d="m379.67 185.19c0 1.42-.13 2.85-.4 4.3-2.08 11.41-12.02 19.7-23.61 19.7h-21.27l4.62-41.93 13.71-30.41.01-11.36c0-13.59-1.94-26.7-5.56-39.03-6.42-21.93-16.95-37.38-24.09-46.27-3.14-3.89-6.9-8.1-11.36-12.37-3.83-3.65-7.56-6.75-11.03-9.37-2.44-1.85-4.95-3.6-7.53-5.25 12.42 3.89 24 9.71 34.39 17.1 3.46 2.47 7.19 5.39 11.02 8.83 4.47 4.01 8.23 7.98 11.37 11.64 7.14 8.37 17.67 22.92 24.09 43.56 3.62 11.62 5.56 23.96 5.56 36.76v52.21c.05.63.08 1.26.08 1.89z" fill="#e9a472"/><path d="m218.836 267.429v52.691l2.715 8.703-2.715 7.067v13.526c21.303 19.959 57.487 24.866 74.327 0v-13.526l-5.828-5.08 5.828-10.69v-52.663z" fill="#e8edf2"/><g fill="#f5f8f9"><path d="m353.815 199.626-.414-2.481c-.764-4.575-.994-9.223-.685-13.85v-46.446c0-8.673-6.031-16.179-14.501-18.047-23.309-5.051-42.872-22.921-50.082-45.858-.579-1.842-3.136-1.882-3.79-.064-7.635 21.233-27.543 36.464-50.704 36.399l-30.389.304c-25.551 2.816-45.235 24.818-44.552 51.124l.586 22.587c.309 4.628.079 9.276-.685 13.85l-.414 2.481c-4.245 25.412 8.243 50.691 31.005 62.761l13.62 7.223c3.656 1.939 7.101 4.251 10.279 6.9l4.579 3.816c10.761 8.967 24.324 13.878 38.332 13.878s27.571-4.911 38.332-13.878l4.579-3.816c3.179-2.649 6.624-4.961 10.279-6.9l13.62-7.223c22.762-12.069 35.25-37.348 31.005-62.76z"/><circle cx="298.04" cy="161.174" r="27.5"/><circle cx="214.065" cy="161.174" r="27.5"/></g><path d="m402.957 412.255-8.61 8.383h-28.347l-5.535-21.509 5.535-30.349c2.24-.42 2.732 2.114 4.912 2.114 21.33 0 35.815 19.301 32.045 41.361z" fill="#ffcb3d"/><path d="m366 379.929v40.709h-220l-7.276-25.462 7.276-26.396 72.84-19.36 14.85 14.98 22.31-5.62 18.91 10.82 18.25-20.18z" fill="#ffda45"/><path d="m407.44 409.56-1.799 11.078h-11.294l-4.687-9.608c-5.24-9.77-13.61-17.38-23.66-21.7l-5.535-10.813 5.535-9.737c2.24-.42 4.46-.62 6.64-.62 21.33 0 38.57 19.34 34.8 41.4z" fill="#ffbe36"/><path d="m366 368.78v20.55c-2.18-.94-4.43-1.72-6.75-2.34l-66.09-17.57-18.25.18 18.25-20.18z" fill="#ffcb3d"/><path d="m146 368.78v51.858h-39.653l-1.787-11.078c-4.15-24.31 17.2-45.32 41.44-40.78z" fill="#ffcb3d"/><path d="m206.494 385.503-3.895-2.557c-16.967-11.137-20.623-34.482-7.874-50.273 1.883-2.333 5.382-2.495 7.473-.347l8.854 9.095c6.977 7.167 15.737 12.402 25.424 14.892.074.019.149.038.223.057 7.58 1.925 14.253 2.411 19.3 2.411.001 25.427-28.248 40.675-49.505 26.722z" fill="#ffbe36"/><path d="m305.506 385.503 3.895-2.557c16.967-11.137 20.623-34.482 7.874-50.273-1.883-2.333-5.382-2.495-7.473-.347l-8.854 9.095c-6.977 7.167-15.737 12.402-25.424 14.892-.074.019-.149.038-.223.057-7.58 1.925-14.253 2.411-19.3 2.411-.001 25.427 28.248 40.675 49.505 26.722z" fill="#ffbe36"/></g><g><path d="m241.466 201.647c-2.352 3.41-1.494 8.081 1.916 10.432 3.805 2.624 8.205 3.939 12.611 3.939 4.177 0 8.359-1.184 12.039-3.558l.39-.251c3.482-2.243 4.486-6.884 2.244-10.366-2.243-3.482-6.883-4.487-10.367-2.244l-.395.254c-2.458 1.586-5.602 1.536-8.007-.123-3.41-2.351-8.081-1.492-10.431 1.917z"/><path d="m298.04 196.174c19.299 0 35-15.701 35-35s-15.701-35-35-35-35 15.701-35 35 15.701 35 35 35zm0-55c11.028 0 20 8.972 20 20s-8.972 20-20 20-20-8.972-20-20 8.972-20 20-20z"/><path d="m214.065 196.174c19.299 0 35-15.701 35-35s-15.701-35-35-35-35 15.701-35 35 15.702 35 35 35zm0-55c11.028 0 20 8.972 20 20s-8.972 20-20 20-20-8.972-20-20 8.972-20 20-20z"/><path d="m297.595 228.916c-2.304 1.174-4.65 2.239-7.027 3.206l-1.228-3.373c-1.416-3.892-5.72-5.9-9.613-4.482-3.893 1.417-5.899 5.721-4.482 9.613l.994 2.731c-4.204.947-8.46 1.599-12.738 1.948v-3.398c0-4.142-3.357-7.5-7.5-7.5s-7.5 3.358-7.5 7.5v3.398c-4.278-.349-8.535-1-12.738-1.948l.994-2.731c1.417-3.892-.59-8.196-4.482-9.613-3.893-1.419-8.197.59-9.613 4.482l-1.228 3.373c-2.377-.967-4.723-2.031-7.027-3.206-3.69-1.88-8.207-.413-10.088 3.278-1.881 3.69-.413 8.207 3.277 10.087 2.852 1.453 5.756 2.769 8.702 3.948l-1.053 2.892c-1.417 3.892.59 8.196 4.482 9.613.847.309 1.713.455 2.564.455 3.063 0 5.94-1.891 7.049-4.937l1.255-3.449c5.892 1.438 11.884 2.365 17.905 2.787v3.25c0 4.142 3.357 7.5 7.5 7.5s7.5-3.358 7.5-7.5v-3.25c6.021-.422 12.012-1.349 17.905-2.787l1.255 3.449c1.108 3.045 3.984 4.937 7.049 4.937.852 0 1.718-.146 2.564-.455 3.893-1.417 5.899-5.721 4.482-9.613l-1.053-2.892c2.946-1.18 5.85-2.495 8.702-3.948 3.69-1.88 5.158-6.397 3.277-10.087-1.879-3.692-6.394-5.158-10.086-3.278z"/><path d="m494.5 88h-114.667c-5.344-15.378-13.465-29.525-24.197-42.104-6.98-8.165-14.993-15.489-23.744-21.707-22.254-15.824-48.497-24.189-75.892-24.189-25.214 0-49.701 7.177-70.815 20.755-3.484 2.24-4.492 6.881-2.252 10.365 2.24 3.483 6.881 4.492 10.365 2.251 18.689-12.018 40.371-18.371 62.702-18.371 7.749 0 15.391.764 22.85 2.248v47.551l-1.42 4.623c-5.946 19.354-23.544 32.358-43.79 32.358-.025 0-.05 0-.075 0l-30.389.304c-13.767 0-27.991 8.307-37.674 19.303-9.6 10.929-14.679 24.962-14.301 39.515l.586 22.587c.497 5.652-.36 11.319-1.291 16.882-5.685-2.471-10.587-8.009-10.587-13.023v-56.258c0-28.026 10.122-55.085 28.501-76.194 2.72-3.124 2.393-7.861-.731-10.581-3.124-2.721-7.861-2.393-10.581.731-11.054 12.697-19.463 27.298-24.909 42.954h-114.689c-9.649 0-17.5 7.851-17.5 17.5v399c0 4.142 3.357 7.5 7.5 7.5s7.5-3.358 7.5-7.5v-399c0-1.378 1.121-2.5 2.5-2.5h42.5v20h-17.5c-6.893 0-12.5 5.607-12.5 12.5v20c0 6.893 5.607 12.5 12.5 12.5h17.5v20h-17.5c-6.893 0-12.5 5.607-12.5 12.5v20c0 6.893 5.607 12.5 12.5 12.5h17.5v20h-17.5c-6.893 0-12.5 5.607-12.5 12.5v20c0 6.893 5.607 12.5 12.5 12.5h17.5v20h-17.5c-6.893 0-12.5 5.607-12.5 12.5v20c0 6.893 5.607 12.5 12.5 12.5h17.5v20h-17.5c-6.893 0-12.5 5.607-12.5 12.5v20c0 6.893 5.607 12.5 12.5 12.5h427c6.893 0 12.5-5.607 12.5-12.5v-20c0-6.893-5.607-12.5-12.5-12.5h-17.5v-20h17.5c6.893 0 12.5-5.607 12.5-12.5v-20c0-6.893-5.607-12.5-12.5-12.5h-17.5v-20h17.5c6.893 0 12.5-5.607 12.5-12.5v-20c0-6.893-5.607-12.5-12.5-12.5h-17.5v-20h17.5c6.893 0 12.5-5.607 12.5-12.5v-20c0-6.893-5.607-12.5-12.5-12.5h-17.5v-20h17.5c6.893 0 12.5-5.607 12.5-12.5v-20c0-6.893-5.607-12.5-12.5-12.5h-17.5v-20h42.5c1.379 0 2.5 1.122 2.5 2.5v60.117c0 4.142 3.357 7.5 7.5 7.5s7.5-3.358 7.5-7.5v-60.117c0-9.649-7.851-17.5-17.5-17.5zm-434.5 325h-15v-15h15zm0-65h-15v-15h15zm0-65h-15v-15h15zm0-65h-15v-15h15zm0-65h-15v-15h15zm320.752 51.354c2.936 5.913 4.996 13.017 4.708 20.476-.596 15.408-10.815 29.117-18.454 29.117-4.333 0-9.501-4.566-13.401-11.628 4.492-8.052 7.318-17.006 8.215-26.327 7.155-1.575 14.131-5.755 18.932-11.638zm-13.777 86.555c-5.239 0-12.457-11.843-12.457-20.439 0-1.638.338-3.232.944-4.713 3.682 2.071 7.579 3.189 11.544 3.189 3.985 0 7.873-1.048 11.534-3.054.572 1.444.891 2.991.891 4.578 0 8.595-7.218 20.439-12.456 20.439zm9.541 29.749c-4.107 1.809-14.975 1.809-19.082 0 .852-6.819 6.248-14.75 9.541-14.75s8.689 7.931 9.541 14.75zm-82.666-299.34c10.371 3.575 20.242 8.62 29.351 15.098 7.751 5.505 14.852 11.996 21.03 19.223 10.35 12.132 17.968 25.9 22.642 40.924 3.463 11.135 5.219 22.751 5.219 34.524l-.026 56.261c0 5.247-4.782 10.72-10.549 13.105-.956-5.656-1.797-11.413-1.3-17.158v-46.446c0-12.096-8.573-22.766-20.386-25.371-23.105-5.095-41.08-23.255-45.98-46.361v-43.799zm-128.268 179.546c1.097-5.889 1.614-11.936 1.195-17.912l-.582-22.438c-.566-21.854 15.888-40.861 37.521-43.434l29.966-.3c21.905-.014 41.471-11.497 52.222-29.663 10.102 19.578 28.507 34.116 50.696 39.01 4.992 1.101 8.616 5.61 8.616 10.723v46.203c-.406 5.94.111 11.955 1.202 17.809 3.718 22.263-7.182 44.326-27.122 54.901l-13.619 7.222c-5.785 2.943-11.219 7.363-16.146 11.58-9.394 7.829-21.302 12.14-33.53 12.14s-24.137-4.311-33.53-12.139c-4.933-4.222-10.355-8.632-16.146-11.581l-13.619-7.222c-19.942-10.575-30.842-32.638-27.124-54.899zm41.133 175.812c-6.413-4.21-10.599-10.702-11.786-18.282-1.039-6.635.364-13.179 3.964-18.712l6.786 6.97c8.059 8.278 18.062 14.131 28.934 16.926l.242.062c4.151 1.054 8.378 1.795 12.637 2.219-1.805 6.118-5.953 11.276-11.836 14.452-8.04 4.341-17.404 3.939-25.046-1.077h.001zm31.805-27.582-.176-.044c-4.204-1.081-8.241-2.786-12.008-5.031v-13.715l8.775 2.834c1.497.483 3.11.484 4.609 0l16.276-5.256 16.278 5.256c.749.242 1.527.363 2.305.363s1.556-.121 2.305-.363l8.779-2.834v13.716c-3.767 2.245-7.802 3.95-12.005 5.03l-.205.052c-5.698 1.447-11.567 2.181-17.446 2.181-.005 0-.009 0-.008 0s0 0 0 0c-.002 0-.004 0-.007 0-5.878-.002-11.749-.736-17.472-2.189zm36.06-30.975-16.278-5.256c-1.498-.483-3.111-.483-4.609 0l-16.276 5.256-11.08-3.578v-19.742c9.179 4.498 19.329 6.906 29.664 6.906s20.485-2.408 29.664-6.906v19.742zm-124.398-102.114c.898 9.315 3.724 18.264 8.214 26.313-3.9 7.062-9.068 11.628-13.401 11.628-7.639 0-17.858-13.709-18.454-29.117-.29-7.526 1.809-14.693 4.787-20.638 4.674 5.784 11.459 10.19 18.854 11.814zm-5.157 74.904c-5.238 0-12.456-11.843-12.456-20.439 0-1.586.319-3.134.891-4.578 3.661 2.006 7.548 3.054 11.534 3.054 3.965 0 7.862-1.118 11.544-3.189.607 1.481.944 3.075.944 4.713 0 8.595-7.217 20.439-12.457 20.439zm9.541 29.749c-4.107 1.809-14.975 1.809-19.082 0 .852-6.819 6.248-14.75 9.541-14.75s8.69 7.931 9.541 14.75zm-16.066 92.342h-25.923c-2.249-10.51-.853-21.657 7.315-29.304 5.116-5.035 11.677-7.807 18.607-8.014v37.318zm-29.129-39.995c-10.678 10.379-14.771 25.51-11.923 39.995h-22.448v-310h52.959c-2.009 9.164-3.049 18.577-3.049 28.09v55.39c-8.911 11.093-13.878 25.462-13.357 38.928.36 9.342 3.739 19.78 9.038 27.921.475.73.965 1.429 1.462 2.112-2.895 4.427-4.482 9.641-4.482 15.029 0 7.034 2.632 15.32 7.04 22.164 1.526 2.369 3.189 4.432 4.952 6.194-5.799 6.656-9.193 16.233-9.193 23.6 0 2.582 1.001 8.955 10.27 12.368 3.921 1.444 9.03 2.239 14.387 2.239 15.209 0 24.656-5.597 24.656-14.606 0-7.355-3.383-16.914-9.165-23.568 7.507-7.466 11.966-19.392 11.966-28.389 0-5.352-1.565-10.515-4.412-14.914 4.99 5.322 10.896 9.899 17.607 13.458l13.619 7.222c4.329 2.217 8.356 5.409 12.04 8.576v46.148l-3.765-3.866c-2.492-2.56-5.953-3.938-9.538-3.766-3.567.166-6.9 1.856-9.144 4.634-5.573 6.903-8.761 15.374-9.221 24.107l-34.037 9.049c-13.242-1.919-26.68 2.455-36.262 11.885zm249.129 39.995h-205v-38.453l28.125-7.477c2.913 9.021 8.84 16.882 16.859 22.146l3.895 2.557h.001c6.649 4.365 14.106 6.563 21.604 6.563 6.397 0 12.824-1.602 18.798-4.827 5.372-2.9 9.831-6.836 13.232-11.487 5.505 7.57 13.704 13.144 23.488 15.33.551.123 1.1.182 1.642.182 3.435 0 6.533-2.375 7.312-5.867.903-4.042-1.642-8.051-5.685-8.955-7.529-1.682-15.525-7.511-18.274-16.853 4.26-.423 8.485-1.164 12.624-2.215l.271-.069c10.868-2.794 20.872-8.646 28.931-16.924l6.784-6.968c7.118 10.982 5.318 25.671-4.635 34.549-3.091 2.757-3.361 7.499-.604 10.589 2.757 3.092 7.498 3.362 10.59.604 5.746-5.126 9.75-11.493 11.954-18.348l28.089 7.468v38.455zm41.547-4.702c-.045.233-.584 4.437-.624 4.702h-25.923v-37.318c6.93.208 13.492 2.98 18.607 8.014 6.606 6.5 9.499 15.467 7.94 24.602zm36.953 4.702h-22.448c2.848-14.484-1.246-29.617-11.923-39.995-9.581-9.429-23.021-13.806-36.26-11.886l-34.009-9.042c-.444-8.521-3.489-16.98-9.249-24.113-2.244-2.78-5.577-4.47-9.145-4.636-3.572-.172-7.045 1.207-9.539 3.767l-3.764 3.866v-46.148c3.688-3.17 7.708-6.357 12.04-8.576l13.619-7.222c6.711-3.559 12.616-8.137 17.607-13.458-2.848 4.399-4.412 9.562-4.412 14.914 0 7.034 2.632 15.32 7.04 22.164 1.526 2.369 3.189 4.432 4.953 6.194-5.799 6.656-9.192 16.233-9.192 23.6 0 2.582 1.001 8.955 10.27 12.368 3.921 1.444 9.03 2.239 14.387 2.239 15.209 0 24.656-5.597 24.656-14.606 0-7.355-3.383-16.914-9.166-23.568 7.507-7.466 11.965-19.392 11.965-28.389 0-5.388-1.588-10.602-4.482-15.029.497-.682.987-1.382 1.462-2.112 5.299-8.141 8.678-18.579 9.038-27.921.521-13.479-4.456-27.861-13.383-38.959l.026-55.359c0-9.497-1.032-18.903-3.038-28.09h52.947zm30-15v15h-15v-15zm0-65v15h-15v-15zm0-65v15h-15v-15zm0-65v15h-15v-15zm0-65v15h-15v-15z"/><path d="m504.5 193.117c-4.143 0-7.5 3.358-7.5 7.5v303.883c0 4.142 3.357 7.5 7.5 7.5s7.5-3.358 7.5-7.5v-303.883c0-4.142-3.357-7.5-7.5-7.5z"/><path d="m152.574 467c-18.457 0-93.156 0-110.074 0-6.893 0-12.5 5.607-12.5 12.5v20c0 6.893 5.607 12.5 12.5 12.5h25c4.143 0 7.5-3.358 7.5-7.5v-22.5h77.574c4.143 0 7.5-3.358 7.5-7.5s-3.357-7.5-7.5-7.5zm-92.574 30h-15v-15h15z"/><path d="m469.5 467c-5.462.024-268.923-.017-281.933 0-4.135 0-7.493 3.358-7.493 7.5s3.357 7.5 7.5 7.5h249.426v22.5c0 4.142 3.357 7.5 7.5 7.5h25c6.893 0 12.5-5.607 12.5-12.5v-20c0-6.893-5.607-12.5-12.5-12.5zm-2.5 30h-15v-15h15z"/><circle cx="298.04" cy="161.174" r="7.5"/><circle cx="214.065" cy="161.174" r="7.5"/></g></g></svg>